<mxfile host="65bd71144e">
    <diagram id="1AkDlDdRybYbdOozTLKE" name="Page-1">
        <mxGraphModel dx="586" dy="864" grid="1" gridSize="10" guides="1" tooltips="1" connect="1" arrows="1" fold="1" page="1" pageScale="1" pageWidth="850" pageHeight="1100" math="0" shadow="0">
            <root>
                <mxCell id="0"/>
                <mxCell id="1" parent="0"/>
                <mxCell id="2" value="IAM" style="rounded=1;whiteSpace=wrap;html=1;" vertex="1" parent="1">
                    <mxGeometry x="250" y="190" width="120" height="60" as="geometry"/>
                </mxCell>
                <mxCell id="4" value="&lt;font style=&quot;font-size: 15px;&quot;&gt;Es un servicio &lt;font style=&quot;font-size: 15px;&quot;&gt;web que le ayuda &lt;/font&gt;a administrar el accesso seguro a sus cuentas y recursos de AWS con IAM puede crear y administrar usuarios aplicaciones y servicios conectados de AWS&lt;/font&gt;" style="text;html=1;strokeColor=none;fillColor=none;align=center;verticalAlign=middle;whiteSpace=wrap;rounded=0;fontSize=14;" vertex="1" parent="1">
                    <mxGeometry x="120" y="60" width="380" height="110" as="geometry"/>
                </mxCell>
                <mxCell id="5" value="&lt;font style=&quot;font-size: 13px;&quot;&gt;No es especifico de una region&lt;/font&gt;" style="ellipse;whiteSpace=wrap;html=1;fontSize=15;fillColor=#60a917;fontColor=#ffffff;strokeColor=#2D7600;" vertex="1" parent="1">
                    <mxGeometry x="30" y="310" width="120" height="80" as="geometry"/>
                </mxCell>
                <mxCell id="7" value="&lt;font style=&quot;font-size: 12px;&quot;&gt;Puede otorgar permisos a otras personas sin dar usuario y contraseña&lt;/font&gt;" style="ellipse;whiteSpace=wrap;html=1;fontSize=15;fillColor=#008a00;fontColor=#ffffff;strokeColor=#005700;" vertex="1" parent="1">
                    <mxGeometry x="170" y="305" width="140" height="90" as="geometry"/>
                </mxCell>
                <mxCell id="8" value="&lt;span style=&quot;font-size: 13px;&quot;&gt;Es compatible con MFA&lt;/span&gt;" style="ellipse;whiteSpace=wrap;html=1;fontSize=15;fillColor=#0050ef;fontColor=#ffffff;strokeColor=#001DBC;" vertex="1" parent="1">
                    <mxGeometry x="320" y="310" width="120" height="80" as="geometry"/>
                </mxCell>
                <mxCell id="9" value="Admite federacion de identidades" style="ellipse;whiteSpace=wrap;html=1;fontSize=15;fillColor=#6a00ff;fontColor=#ffffff;strokeColor=#3700CC;" vertex="1" parent="1">
                    <mxGeometry x="470" y="310" width="120" height="80" as="geometry"/>
                </mxCell>
                <mxCell id="11" value="" style="endArrow=classic;html=1;fontSize=15;entryX=0.423;entryY=-0.015;entryDx=0;entryDy=0;exitX=0.75;exitY=1;exitDx=0;exitDy=0;entryPerimeter=0;" edge="1" parent="1" source="2" target="8">
                    <mxGeometry width="50" height="50" relative="1" as="geometry">
                        <mxPoint x="270" y="300" as="sourcePoint"/>
                        <mxPoint x="320" y="250" as="targetPoint"/>
                    </mxGeometry>
                </mxCell>
                <mxCell id="12" value="" style="endArrow=classic;html=1;fontSize=15;exitX=0.75;exitY=1;exitDx=0;exitDy=0;entryX=1;entryY=0;entryDx=0;entryDy=0;" edge="1" parent="1" target="5">
                    <mxGeometry width="50" height="50" relative="1" as="geometry">
                        <mxPoint x="260" y="251.2" as="sourcePoint"/>
                        <mxPoint x="110" y="300" as="targetPoint"/>
                    </mxGeometry>
                </mxCell>
                <mxCell id="13" value="" style="endArrow=classic;html=1;fontSize=15;entryX=0.5;entryY=0;entryDx=0;entryDy=0;" edge="1" parent="1" target="7">
                    <mxGeometry width="50" height="50" relative="1" as="geometry">
                        <mxPoint x="290" y="250" as="sourcePoint"/>
                        <mxPoint x="391" y="290" as="targetPoint"/>
                    </mxGeometry>
                </mxCell>
                <mxCell id="14" value="" style="endArrow=classic;html=1;fontSize=15;entryX=0.5;entryY=0;entryDx=0;entryDy=0;exitX=1;exitY=0.75;exitDx=0;exitDy=0;" edge="1" parent="1" source="2" target="9">
                    <mxGeometry width="50" height="50" relative="1" as="geometry">
                        <mxPoint x="370" y="240" as="sourcePoint"/>
                        <mxPoint x="400.76" y="298.79999999999995" as="targetPoint"/>
                    </mxGeometry>
                </mxCell>
                <mxCell id="15" value="Se ofrece sin cargo adicional. Solo se cobra si se accede a otros servicios de AWS, utilizando usuarios de IAM" style="ellipse;whiteSpace=wrap;html=1;fontSize=13;fillColor=#0050ef;fontColor=#ffffff;strokeColor=#001DBC;" vertex="1" parent="1">
                    <mxGeometry x="10" y="170" width="190" height="120" as="geometry"/>
                </mxCell>
                <mxCell id="16" value="" style="endArrow=classic;html=1;fontSize=15;exitX=0.75;exitY=1;exitDx=0;exitDy=0;entryX=0.987;entryY=0.375;entryDx=0;entryDy=0;entryPerimeter=0;" edge="1" parent="1" target="15">
                    <mxGeometry width="50" height="50" relative="1" as="geometry">
                        <mxPoint x="250" y="210.00000000000006" as="sourcePoint"/>
                        <mxPoint x="122.42640687119285" y="280.5157287525379" as="targetPoint"/>
                    </mxGeometry>
                </mxCell>
                <mxCell id="17" value="Cuando se crea una cuenta de AWS por primera vez, tiene acceso a todos los servicios y recursos de AWS" style="text;html=1;strokeColor=none;fillColor=none;align=center;verticalAlign=middle;whiteSpace=wrap;rounded=0;fontSize=13;" vertex="1" parent="1">
                    <mxGeometry x="5" y="680" width="240" height="60" as="geometry"/>
                </mxCell>
                <mxCell id="18" value="Usuario raiz(usuario, contraseña)" style="ellipse;whiteSpace=wrap;html=1;fontSize=13;fillColor=#60a917;fontColor=#ffffff;strokeColor=#2D7600;" vertex="1" parent="1">
                    <mxGeometry y="460" width="120" height="80" as="geometry"/>
                </mxCell>
                <mxCell id="19" value="" style="endArrow=classic;html=1;fontSize=13;exitX=0.5;exitY=1;exitDx=0;exitDy=0;entryX=0.25;entryY=0;entryDx=0;entryDy=0;" edge="1" parent="1" source="18" target="17">
                    <mxGeometry width="50" height="50" relative="1" as="geometry">
                        <mxPoint x="160" y="520" as="sourcePoint"/>
                        <mxPoint x="90" y="590" as="targetPoint"/>
                        <Array as="points"/>
                    </mxGeometry>
                </mxCell>
                <mxCell id="20" value="Claves de acceso(Compuestas po ID de clave de acceso y clave de acceso secreta" style="ellipse;whiteSpace=wrap;html=1;fontSize=13;fillColor=#6a00ff;fontColor=#ffffff;strokeColor=#3700CC;" vertex="1" parent="1">
                    <mxGeometry x="130" y="460" width="170" height="90" as="geometry"/>
                </mxCell>
                <mxCell id="25" value="Solicitudes programaticas desde AWS CLI o la API&amp;nbsp; de AWS" style="text;html=1;strokeColor=none;fillColor=none;align=center;verticalAlign=middle;whiteSpace=wrap;rounded=0;fontSize=13;" vertex="1" parent="1">
                    <mxGeometry x="290" y="680" width="180" height="60" as="geometry"/>
                </mxCell>
                <mxCell id="27" value="" style="endArrow=classic;html=1;fontSize=13;exitX=0.5;exitY=1;exitDx=0;exitDy=0;" edge="1" parent="1" source="20" target="25">
                    <mxGeometry width="50" height="50" relative="1" as="geometry">
                        <mxPoint x="311.52" y="500" as="sourcePoint"/>
                        <mxPoint x="310" y="591.2" as="targetPoint"/>
                    </mxGeometry>
                </mxCell>
                <mxCell id="29" value="De forma similar a una combinacion de nombre de usuario y contraseña necesita tanto el ID de la clave de acceso como la clave de acceso secreta para autenticar sus solicitudes en la AWS" style="text;html=1;strokeColor=none;fillColor=none;align=center;verticalAlign=middle;whiteSpace=wrap;rounded=0;fontSize=13;" vertex="1" parent="1">
                    <mxGeometry x="310" y="460" width="360" height="95" as="geometry"/>
                </mxCell>
            </root>
        </mxGraphModel>
    </diagram>
</mxfile>